<?xml version="1.0" encoding="UTF-8" standalone="no"?>
<!DOCTYPE svg PUBLIC "-//W3C//DTD SVG 20010904//EN"
              "http://www.w3.org/TR/2001/REC-SVG-20010904/DTD/svg10.dtd">

<!--suppress ALL -->
<svg xmlns="http://www.w3.org/2000/svg"
     width="62.251mm" height="12.4502mm"
     viewBox="0 0 2000 400">
  <path id="Selection #4"
        fill="#38b6ff" stroke="none" stroke-width="1"
        d="M 0.00,0.00
           C 0.00,0.00 0.00,400.00 0.00,400.00
             0.00,400.00 2000.00,400.00 2000.00,400.00
             2000.00,400.00 2000.00,0.00 2000.00,0.00
             2000.00,0.00 0.00,0.00 0.00,0.00 Z
           M 1964.00,40.00
           C 1964.00,40.00 1964.00,358.00 1964.00,358.00
             1964.00,358.00 35.00,358.00 35.00,358.00
             35.00,358.00 35.00,40.00 35.00,40.00
             35.00,40.00 1964.00,40.00 1964.00,40.00 Z
           M 71.00,76.00
           C 71.00,76.00 71.00,321.00 71.00,321.00
             71.00,321.00 1927.00,321.00 1927.00,321.00
             1927.00,321.00 1927.00,76.00 1927.00,76.00
             1927.00,76.00 71.00,76.00 71.00,76.00 Z
           M 710.00,125.28
           C 716.79,124.65 719.42,125.06 726.00,125.85
             743.13,127.89 755.93,130.50 768.71,143.29
             782.45,157.02 785.60,173.45 787.08,192.00
             787.08,192.00 787.96,202.00 787.96,202.00
             787.96,202.00 786.13,219.00 786.13,219.00
             784.19,232.93 780.40,245.28 770.83,256.00
             753.38,275.54 731.32,276.28 707.00,276.00
             671.17,275.58 645.41,245.98 645.00,211.00
             644.77,190.77 644.74,170.70 656.09,153.00
             664.87,139.32 678.15,130.69 694.00,127.45
             694.00,127.45 710.00,125.28 710.00,125.28 Z
           M 1624.00,125.28
           C 1630.95,124.64 1633.33,125.12 1640.00,125.84
             1656.26,127.58 1670.94,131.02 1682.96,143.04
             1702.93,163.01 1705.24,201.90 1698.87,228.00
             1696.45,237.91 1692.63,247.25 1685.82,255.00
             1667.61,275.71 1646.56,276.30 1621.00,276.00
             1602.60,275.78 1582.70,266.09 1572.04,251.00
             1558.62,232.00 1556.49,200.27 1561.00,178.00
             1562.48,170.70 1565.30,161.40 1569.09,155.00
             1582.71,132.02 1599.91,128.75 1624.00,125.28 Z
           M 331.00,136.00
           C 331.00,136.00 319.00,167.00 319.00,167.00
             308.81,164.94 299.53,159.45 289.00,159.04
             260.44,157.92 252.85,188.20 256.00,211.00
             257.25,220.03 260.07,229.37 267.09,235.67
             283.24,250.16 306.56,240.05 324.00,234.00
             324.00,234.00 324.00,261.00 324.00,261.00
             324.00,263.03 324.26,266.64 323.01,268.30
             321.54,270.25 316.38,271.32 314.00,272.00
             305.54,274.43 298.88,275.99 290.00,276.00
             265.54,276.04 245.00,274.96 228.52,254.00
             219.10,242.03 214.07,222.11 214.00,207.00
             213.87,179.83 218.75,154.96 242.00,137.76
             264.40,121.18 307.28,122.86 331.00,136.00 Z
           M 629.00,136.00
           C 629.00,136.00 617.00,167.00 617.00,167.00
             606.81,164.94 597.53,159.45 587.00,159.04
             558.51,157.92 550.78,188.21 554.00,211.00
             555.26,219.89 558.20,229.49 565.09,235.67
             581.24,250.16 604.56,240.05 622.00,234.00
             622.00,234.00 622.00,261.00 622.00,261.00
             622.00,263.03 622.26,266.64 621.01,268.30
             619.54,270.25 614.38,271.32 612.00,272.00
             603.54,274.43 596.88,275.99 588.00,276.00
             563.54,276.04 543.00,274.96 526.52,254.00
             517.10,242.03 512.07,222.11 512.00,207.00
             511.87,179.83 516.75,154.96 540.00,137.76
             562.40,121.18 605.28,122.86 629.00,136.00 Z
           M 189.00,128.00
           C 189.00,128.00 189.00,274.00 189.00,274.00
             189.00,274.00 148.00,274.00 148.00,274.00
             148.00,274.00 148.00,128.00 148.00,128.00
             148.00,128.00 189.00,128.00 189.00,128.00 Z
           M 439.00,128.00
           C 439.00,128.00 439.00,160.00 439.00,160.00
             439.00,160.00 392.00,160.00 392.00,160.00
             392.00,160.00 392.00,182.00 392.00,182.00
             392.00,182.00 436.00,182.00 436.00,182.00
             436.00,182.00 436.00,215.00 436.00,215.00
             436.00,215.00 392.00,215.00 392.00,215.00
             392.00,215.00 392.00,241.00 392.00,241.00
             392.00,241.00 439.00,241.00 439.00,241.00
             439.00,241.00 439.00,274.00 439.00,274.00
             439.00,274.00 352.00,274.00 352.00,274.00
             352.00,274.00 352.00,128.00 352.00,128.00
             352.00,128.00 439.00,128.00 439.00,128.00 Z
           M 853.00,128.00
           C 853.00,128.00 853.00,242.00 853.00,242.00
             853.00,242.00 910.00,242.00 910.00,242.00
             910.00,242.00 910.00,274.00 910.00,274.00
             910.00,274.00 813.00,274.00 813.00,274.00
             813.00,274.00 813.00,128.00 813.00,128.00
             813.00,128.00 853.00,128.00 853.00,128.00 Z
           M 932.00,274.00
           C 932.00,274.00 932.00,128.00 932.00,128.00
             932.00,128.00 977.00,128.00 977.00,128.00
             994.11,128.00 1010.62,128.09 1026.00,136.87
             1034.42,141.68 1041.42,147.69 1046.53,156.00
             1065.09,186.12 1059.57,240.84 1029.00,261.48
             1008.90,275.05 990.00,274.00 967.00,274.00
             967.00,274.00 932.00,274.00 932.00,274.00 Z
           M 1176.00,128.00
           C 1176.00,128.00 1176.00,242.00 1176.00,242.00
             1176.00,242.00 1232.00,242.00 1232.00,242.00
             1232.00,242.00 1232.00,274.00 1232.00,274.00
             1232.00,274.00 1135.00,274.00 1135.00,274.00
             1135.00,274.00 1135.00,128.00 1135.00,128.00
             1135.00,128.00 1176.00,128.00 1176.00,128.00 Z
           M 1342.00,128.00
           C 1342.00,128.00 1342.00,160.00 1342.00,160.00
             1342.00,160.00 1295.00,160.00 1295.00,160.00
             1295.00,160.00 1295.00,182.00 1295.00,182.00
             1295.00,182.00 1338.00,182.00 1338.00,182.00
             1338.00,182.00 1338.00,215.00 1338.00,215.00
             1338.00,215.00 1295.00,215.00 1295.00,215.00
             1295.00,215.00 1295.00,241.00 1295.00,241.00
             1295.00,241.00 1341.00,242.00 1341.00,242.00
             1341.00,242.00 1342.00,274.00 1342.00,274.00
             1342.00,274.00 1254.00,274.00 1254.00,274.00
             1254.00,274.00 1254.00,128.00 1254.00,128.00
             1254.00,128.00 1342.00,128.00 1342.00,128.00 Z
           M 1420.00,129.00
           C 1420.00,129.00 1425.28,145.00 1425.28,145.00
             1425.28,145.00 1440.28,196.00 1440.28,196.00
             1440.28,196.00 1450.00,229.00 1450.00,229.00
             1450.00,229.00 1459.42,199.00 1459.42,199.00
             1459.42,199.00 1473.00,152.00 1473.00,152.00
             1473.00,152.00 1477.58,136.00 1477.58,136.00
             1477.58,136.00 1480.70,128.99 1480.70,128.99
             1480.70,128.99 1488.00,128.00 1488.00,128.00
             1488.00,128.00 1534.00,128.00 1534.00,128.00
             1534.00,128.00 1534.00,274.00 1534.00,274.00
             1534.00,274.00 1497.00,274.00 1497.00,274.00
             1497.00,274.00 1497.00,189.00 1497.00,189.00
             1497.00,189.00 1498.00,173.00 1498.00,173.00
             1498.00,173.00 1489.58,201.00 1489.58,201.00
             1489.58,201.00 1475.71,250.00 1475.71,250.00
             1475.71,250.00 1471.29,266.00 1471.29,266.00
             1470.74,267.94 1469.88,271.76 1468.28,273.01
             1466.66,274.26 1463.00,274.00 1461.00,274.00
             1461.00,274.00 1438.00,274.00 1438.00,274.00
             1435.97,274.00 1432.36,274.26 1430.70,273.01
             1428.09,271.04 1424.84,255.92 1423.71,252.00
             1423.71,252.00 1409.12,200.00 1409.12,200.00
             1407.39,193.47 1403.55,181.14 1403.00,175.00
             1403.00,175.00 1402.00,208.00 1402.00,208.00
             1402.00,208.00 1402.00,274.00 1402.00,274.00
             1402.00,274.00 1367.00,274.00 1367.00,274.00
             1367.00,274.00 1367.00,128.00 1367.00,128.00
             1367.00,128.00 1420.00,129.00 1420.00,129.00 Z
           M 1831.00,226.00
           C 1833.36,216.30 1831.11,211.88 1831.00,203.00
             1831.00,203.00 1831.00,128.00 1831.00,128.00
             1831.00,128.00 1867.00,128.00 1867.00,128.00
             1867.00,128.00 1867.00,274.00 1867.00,274.00
             1867.00,274.00 1827.00,274.00 1827.00,274.00
             1823.78,273.99 1818.17,274.01 1815.33,272.52
             1811.02,270.25 1804.66,255.83 1802.25,251.00
             1802.25,251.00 1792.26,232.00 1792.26,232.00
             1792.26,232.00 1780.14,208.00 1780.14,208.00
             1776.14,200.78 1764.99,179.97 1763.00,173.00
             1763.00,173.00 1762.06,178.00 1762.06,178.00
             1762.06,178.00 1762.97,187.00 1762.97,187.00
             1762.97,187.00 1762.97,204.00 1762.97,204.00
             1762.97,204.00 1762.97,274.00 1762.97,274.00
             1762.97,274.00 1727.00,274.00 1727.00,274.00
             1727.00,274.00 1727.00,128.00 1727.00,128.00
             1727.00,128.00 1768.00,128.00 1768.00,128.00
             1768.00,128.00 1778.67,129.40 1778.67,129.40
             1778.67,129.40 1784.42,137.00 1784.42,137.00
             1784.42,137.00 1793.25,153.00 1793.25,153.00
             1793.25,153.00 1811.74,188.00 1811.74,188.00
             1811.74,188.00 1831.00,226.00 1831.00,226.00 Z
           M 715.00,158.59
           C 710.94,158.96 707.80,159.20 704.00,160.90
             688.42,167.91 686.93,188.11 687.00,203.00
             687.09,222.08 693.74,243.96 717.00,242.90
             737.91,241.94 744.78,225.56 745.00,207.00
             745.18,191.34 745.45,167.61 728.00,160.48
             724.32,158.98 718.98,158.62 715.00,158.59 Z
           M 1630.00,158.59
           C 1625.31,158.99 1621.26,159.10 1617.00,161.41
             1601.26,169.98 1600.16,194.36 1601.84,210.00
             1603.67,227.18 1609.07,241.75 1629.00,242.91
             1649.83,244.12 1658.78,227.54 1659.00,209.00
             1659.19,192.45 1660.47,166.91 1641.00,160.11
             1637.54,158.90 1633.64,158.62 1630.00,158.59 Z
           M 972.00,160.00
           C 972.00,160.00 972.00,241.00 972.00,241.00
             982.46,241.00 993.14,242.25 1002.00,235.47
             1015.77,224.92 1016.86,201.83 1014.08,186.00
             1012.86,179.09 1010.30,172.01 1004.96,167.21
             996.02,159.18 983.17,160.00 972.00,160.00 Z" />
  <path id="Selection #2"
        fill="#ffffff" stroke="none" stroke-width="1"
        d="M 324.00,235.00
           C 306.39,241.11 282.46,251.36 266.17,236.53
             258.65,229.69 255.12,217.94 255.00,208.00
             254.79,189.95 256.04,165.78 277.00,159.22
             280.77,158.04 284.09,157.93 288.00,158.01
             301.35,158.32 310.14,165.06 319.00,166.00
             319.00,166.00 330.00,136.00 330.00,136.00
             302.52,125.01 271.53,120.44 245.00,136.91
             225.91,148.77 215.26,172.99 215.00,195.00
             214.74,217.70 216.33,239.12 232.30,256.96
             248.39,274.94 277.50,277.93 300.00,274.41
             305.78,273.51 311.45,272.18 317.00,270.33
             318.82,269.72 321.83,268.87 323.01,267.30
             324.26,265.63 324.00,262.04 324.00,260.00
             324.00,260.00 324.00,235.00 324.00,235.00 Z
           M 622.00,235.00
           C 604.39,241.11 580.46,251.36 564.17,236.53
             556.65,229.69 553.12,217.94 553.00,208.00
             552.79,189.95 554.04,165.78 575.00,159.22
             578.77,158.04 582.09,157.93 586.00,158.01
             599.35,158.32 608.14,165.06 617.00,166.00
             617.00,166.00 628.00,136.00 628.00,136.00
             600.52,125.01 569.53,120.44 543.00,136.91
             522.95,149.37 513.04,174.09 513.00,197.00
             513.00,197.00 513.00,207.00 513.00,207.00
             513.03,224.45 518.39,243.86 530.29,256.96
             546.62,274.94 575.29,277.96 598.00,274.41
             603.78,273.51 609.45,272.18 615.00,270.33
             616.82,269.72 619.83,268.87 621.01,267.30
             622.26,265.63 622.00,262.04 622.00,260.00
             622.00,260.00 622.00,235.00 622.00,235.00 Z
           M 707.00,126.42
           C 690.36,128.84 676.68,131.56 664.17,144.17
             652.88,155.55 646.19,175.11 646.00,191.00
             645.72,214.88 646.05,238.61 664.04,256.99
             677.71,270.96 696.19,274.84 715.00,275.91
             718.85,276.13 720.47,275.51 724.00,275.17
             740.98,273.52 756.57,270.07 768.83,256.96
             782.75,242.07 787.23,218.79 787.00,199.00
             786.80,182.15 782.68,161.20 771.68,148.00
             756.36,129.62 730.02,123.62 707.00,126.42 Z
           M 1621.00,126.42
           C 1601.26,129.29 1587.80,132.67 1574.33,149.00
             1568.42,156.16 1563.85,167.90 1562.00,177.00
             1556.92,202.07 1559.44,237.75 1578.09,256.96
             1591.52,270.79 1610.49,274.86 1629.00,275.91
             1633.20,276.15 1635.13,275.37 1639.00,275.09
             1656.06,273.84 1671.94,269.15 1683.83,256.00
             1702.41,235.43 1704.17,198.81 1697.87,173.00
             1695.32,162.54 1690.26,151.98 1682.71,144.17
             1668.11,129.06 1641.24,123.96 1621.00,126.42 Z
           M 149.00,128.00
           C 149.00,128.00 149.00,274.00 149.00,274.00
             149.00,274.00 188.00,274.00 188.00,274.00
             188.00,274.00 188.00,128.00 188.00,128.00
             188.00,128.00 149.00,128.00 149.00,128.00 Z
           M 353.00,128.00
           C 353.00,128.00 353.00,274.00 353.00,274.00
             353.00,274.00 439.00,274.00 439.00,274.00
             439.00,274.00 439.00,242.00 439.00,242.00
             439.00,242.00 391.00,242.00 391.00,242.00
             391.00,242.00 391.00,214.00 391.00,214.00
             391.00,214.00 435.00,214.00 435.00,214.00
             435.00,214.00 435.00,183.00 435.00,183.00
             435.00,183.00 391.00,183.00 391.00,183.00
             391.00,183.00 391.00,159.00 391.00,159.00
             391.00,159.00 439.00,159.00 439.00,159.00
             439.00,159.00 439.00,128.00 439.00,128.00
             439.00,128.00 353.00,128.00 353.00,128.00 Z
           M 814.00,128.00
           C 814.00,128.00 814.00,274.00 814.00,274.00
             814.00,274.00 909.00,274.00 909.00,274.00
             909.00,274.00 909.00,243.00 909.00,243.00
             909.00,243.00 853.00,243.00 853.00,243.00
             853.00,243.00 853.00,128.00 853.00,128.00
             853.00,128.00 814.00,128.00 814.00,128.00 Z
           M 933.00,128.00
           C 933.00,128.00 933.00,274.00 933.00,274.00
             962.39,274.00 1003.03,277.89 1028.00,260.91
             1038.31,253.90 1045.92,243.47 1050.55,232.00
             1059.37,210.14 1058.14,174.89 1044.90,155.00
             1040.76,148.79 1033.43,142.26 1027.00,138.45
             1014.64,131.12 996.26,128.17 982.00,128.00
             982.00,128.00 933.00,128.00 933.00,128.00 Z
           M 1136.00,128.00
           C 1136.00,128.00 1136.00,274.00 1136.00,274.00
             1136.00,274.00 1231.00,274.00 1231.00,274.00
             1231.00,274.00 1231.00,243.00 1231.00,243.00
             1231.00,243.00 1175.00,243.00 1175.00,243.00
             1175.00,243.00 1175.00,128.00 1175.00,128.00
             1175.00,128.00 1136.00,128.00 1136.00,128.00 Z
           M 1255.00,128.00
           C 1255.00,128.00 1255.00,274.00 1255.00,274.00
             1255.00,274.00 1341.00,274.00 1341.00,274.00
             1341.00,274.00 1341.00,242.00 1341.00,242.00
             1341.00,242.00 1294.00,242.00 1294.00,242.00
             1294.00,242.00 1294.00,214.00 1294.00,214.00
             1294.00,214.00 1338.00,214.00 1338.00,214.00
             1338.00,214.00 1338.00,183.00 1338.00,183.00
             1338.00,183.00 1294.00,183.00 1294.00,183.00
             1294.00,183.00 1294.00,159.00 1294.00,159.00
             1294.00,159.00 1341.00,159.00 1341.00,159.00
             1341.00,159.00 1341.00,128.00 1341.00,128.00
             1341.00,128.00 1255.00,128.00 1255.00,128.00 Z
           M 1367.00,128.00
           C 1367.00,128.00 1367.00,274.00 1367.00,274.00
             1367.00,274.00 1402.00,274.00 1402.00,274.00
             1402.00,274.00 1402.00,213.00 1402.00,213.00
             1402.00,213.00 1401.00,197.00 1401.00,197.00
             1401.00,197.00 1400.00,168.00 1400.00,168.00
             1400.00,168.00 1408.71,196.00 1408.71,196.00
             1408.71,196.00 1423.58,248.00 1423.58,248.00
             1423.58,248.00 1428.71,266.00 1428.71,266.00
             1428.71,266.00 1431.72,273.01 1431.72,273.01
             1431.72,273.01 1439.00,274.00 1439.00,274.00
             1439.00,274.00 1468.00,274.00 1468.00,274.00
             1468.00,274.00 1475.58,247.00 1475.58,247.00
             1475.58,247.00 1488.71,200.00 1488.71,200.00
             1490.81,192.70 1494.70,173.99 1499.00,169.00
             1499.00,169.00 1498.00,185.00 1498.00,185.00
             1498.00,185.00 1498.00,198.00 1498.00,198.00
             1498.00,198.00 1497.00,213.00 1497.00,213.00
             1497.00,213.00 1497.00,274.00 1497.00,274.00
             1497.00,274.00 1533.00,274.00 1533.00,274.00
             1533.00,274.00 1533.00,128.00 1533.00,128.00
             1533.00,128.00 1489.00,128.00 1489.00,128.00
             1489.00,128.00 1481.72,128.99 1481.72,128.99
             1481.72,128.99 1478.66,136.00 1478.66,136.00
             1478.66,136.00 1474.00,152.00 1474.00,152.00
             1474.00,152.00 1451.00,232.00 1451.00,232.00
             1451.00,232.00 1442.28,206.00 1442.28,206.00
             1442.28,206.00 1426.66,153.00 1426.66,153.00
             1426.66,153.00 1421.66,136.00 1421.66,136.00
             1421.66,136.00 1418.44,129.02 1418.44,129.02
             1418.44,129.02 1411.00,128.00 1411.00,128.00
             1411.00,128.00 1367.00,128.00 1367.00,128.00 Z
           M 1728.00,128.00
           C 1728.00,128.00 1728.00,274.00 1728.00,274.00
             1728.00,274.00 1762.00,274.00 1762.00,274.00
             1762.00,274.00 1762.00,209.00 1762.00,209.00
             1762.00,200.61 1762.03,178.14 1760.00,171.00
             1766.26,176.51 1772.30,191.15 1776.25,199.00
             1776.25,199.00 1801.75,248.00 1801.75,248.00
             1801.75,248.00 1810.74,265.00 1810.74,265.00
             1811.83,267.11 1813.77,271.71 1815.63,273.01
             1817.42,274.25 1820.87,274.00 1823.00,274.00
             1823.00,274.00 1866.00,274.00 1866.00,274.00
             1866.00,274.00 1866.00,128.00 1866.00,128.00
             1866.00,128.00 1832.00,128.00 1832.00,128.00
             1832.00,128.00 1832.00,204.00 1832.00,204.00
             1832.00,204.00 1832.96,216.00 1832.96,216.00
             1832.96,216.00 1832.96,230.00 1832.96,230.00
             1832.96,230.00 1811.74,190.00 1811.74,190.00
             1811.74,190.00 1792.25,153.00 1792.25,153.00
             1792.25,153.00 1783.76,137.00 1783.76,137.00
             1783.76,137.00 1778.61,129.02 1778.61,129.02
             1778.61,129.02 1771.00,128.00 1771.00,128.00
             1771.00,128.00 1728.00,128.00 1728.00,128.00 Z
           M 710.00,158.41
           C 713.87,157.91 720.25,157.70 724.00,158.41
             744.24,162.91 746.03,186.23 746.00,203.00
             745.98,218.93 741.92,240.04 723.00,242.91
             718.71,243.46 715.30,243.58 711.00,242.91
             692.74,240.49 688.52,225.78 686.84,210.00
             686.33,205.31 685.90,204.06 686.01,199.00
             686.40,181.95 690.61,162.09 710.00,158.41 Z
           M 1624.00,158.32
           C 1629.42,157.73 1636.87,157.63 1642.00,159.56
             1656.36,164.98 1659.98,182.37 1660.00,196.00
             1660.03,213.40 1659.96,238.58 1638.00,242.68
             1613.64,247.22 1601.11,230.89 1601.00,208.00
             1600.91,188.48 1599.86,163.74 1624.00,158.32 Z
           M 972.00,242.00
           C 972.00,242.00 972.00,159.00 972.00,159.00
             981.96,159.00 995.91,158.90 1003.99,165.39
             1017.70,176.40 1017.97,202.30 1013.84,218.00
             1012.08,224.71 1010.03,229.60 1004.71,234.32
             995.16,242.79 983.79,242.00 972.00,242.00 Z" />
  <path id="Selection #1"
        fill="#f4cd2c" stroke="none" stroke-width="1"
        d="M 35.00,40.00
           C 35.00,40.00 35.00,357.00 35.00,357.00
             35.00,357.00 1963.00,357.00 1963.00,357.00
             1963.00,357.00 1963.00,40.00 1963.00,40.00
             1963.00,40.00 35.00,40.00 35.00,40.00 Z
           M 1928.00,75.00
           C 1928.00,75.00 1928.00,322.00 1928.00,322.00
             1928.00,322.00 70.00,322.00 70.00,322.00
             70.00,322.00 70.00,75.00 70.00,75.00
             70.00,75.00 1928.00,75.00 1928.00,75.00 Z" />
</svg>
